<svg width="18" height="18" viewBox="0 0 18 18" fill="none" xmlns="http://www.w3.org/2000/svg">
<path fill-rule="evenodd" clip-rule="evenodd" d="M6.6982 11L7.4272 7H11.3022L10.5732 11H6.6982ZM17.0002 11H12.6982L13.4272 7H17.0002C17.5502 7 18.0002 6.55 18.0002 6C18.0002 5.45 17.5502 5 17.0002 5H13.7902L14.4842 1.189C14.5842 0.640999 14.2022 0.111999 13.6352 0.0159993C13.0682 -0.0810007 12.5232 0.288999 12.4232 0.837999L11.6652 5H7.7902L8.4842 1.189C8.5842 0.640999 8.2022 0.111999 7.6352 0.0159993C7.0682 -0.0810007 6.5232 0.288999 6.4232 0.837999L5.6652 5H1.0002C0.450198 5 0.000198364 5.45 0.000198364 6C0.000198364 6.55 0.450198 7 1.0002 7H5.3022L4.5732 11H1.0002C0.450198 11 0.000198364 11.45 0.000198364 12C0.000198364 12.55 0.450198 13 1.0002 13H4.2092L3.5152 16.811C3.4162 17.359 3.7982 17.888 4.3652 17.984C4.9312 18.081 5.4772 17.711 5.5762 17.162L6.3342 13H10.2092L9.5152 16.811C9.4162 17.359 9.7982 17.888 10.3652 17.984C10.9312 18.081 11.4772 17.711 11.5762 17.162L12.3342 13H17.0002C17.5502 13 18.0002 12.55 18.0002 12C18.0002 11.45 17.5502 11 17.0002 11Z" fill="black"/>
</svg>
